<svg width="818" height="174" viewBox="0 0 818 174" fill="none" xmlns="http://www.w3.org/2000/svg">
<path d="M165 143.517V110.34V64.6166V59.067H195.282C202.359 59.067 208.432 60.193 213.499 62.445C218.566 64.697 222.466 67.9544 225.201 72.2172C227.936 76.3995 229.303 81.5067 229.303 87.5389C229.303 93.4102 227.936 98.4772 225.201 102.74C222.466 107.003 218.566 110.26 213.499 112.512C208.432 114.764 202.359 115.89 195.282 115.89H171.153V143.517H165ZM165 110.34H195.282C204.37 110.34 211.247 108.37 215.912 104.429C220.657 100.408 223.029 94.7775 223.029 87.5389C223.029 80.2198 220.657 74.5898 215.912 70.6488C211.247 66.6273 204.37 64.6166 195.282 64.6166H165V110.34Z" fill="#5E68BA"/>
<path d="M287.235 143.517V129.161L286.994 126.989V103.343C286.994 97.4718 285.385 93.008 282.168 89.9517C279.032 86.8954 274.407 85.3673 268.294 85.3673C263.951 85.3673 259.89 86.1314 256.109 87.6595C252.41 89.1072 249.233 90.9973 246.579 93.3298L243.562 88.9866C246.699 86.1716 250.479 84 254.903 82.4718C259.327 80.8633 263.951 80.059 268.777 80.059C276.579 80.059 282.57 82.0295 286.753 85.9705C290.935 89.9115 293.026 95.7828 293.026 103.584V143.517H287.235ZM264.554 144C259.89 144 255.828 143.276 252.369 141.828C248.991 140.3 246.377 138.169 244.528 135.434C242.758 132.7 241.873 129.563 241.873 126.024C241.873 122.807 242.597 119.912 244.045 117.338C245.573 114.684 248.066 112.552 251.525 110.944C254.983 109.255 259.608 108.41 265.399 108.41H288.562V113.115H265.52C259.005 113.115 254.42 114.322 251.766 116.735C249.192 119.147 247.906 122.164 247.906 125.783C247.906 129.804 249.434 133.021 252.49 135.434C255.546 137.847 259.849 139.054 265.399 139.054C270.707 139.054 275.171 137.847 278.79 135.434C282.49 133.021 285.225 129.523 286.994 124.938L288.683 129.04C286.994 133.625 284.099 137.284 279.997 140.019C275.975 142.673 270.828 144 264.554 144Z" fill="#5E68BA"/>
<path d="M323.671 94.2949C325.601 89.7105 328.617 86.2118 332.719 83.7989C336.821 81.3056 341.807 80.059 347.679 80.059V85.9705L346.231 85.8499C339.234 85.8499 333.764 88.0617 329.823 92.4853C325.882 96.8284 323.912 102.901 323.912 110.702V143.517H317.88V80.5416H323.671V94.2949Z" fill="#5E68BA"/>
<path d="M393.616 139.536C392.087 140.984 390.157 142.11 387.825 142.914C385.573 143.638 383.2 144 380.707 144C375.238 144 371.015 142.512 368.039 139.536C365.063 136.48 363.575 132.257 363.575 126.869V66.7882H369.607V80.5416H389.634V85.7292H369.607V126.265C369.607 130.367 370.573 133.504 372.503 135.676C374.514 137.767 377.449 138.812 381.31 138.812C385.251 138.812 388.508 137.646 391.082 135.314L393.616 139.536Z" fill="#5E68BA"/>
<path d="M410.365 80.5416H416.397V143.517H410.365V80.5416ZM413.381 65.2198C412.014 65.2198 410.848 64.7775 409.883 63.8928C408.917 62.9276 408.435 61.7614 408.435 60.3941C408.435 59.0268 408.917 57.8606 409.883 56.8954C410.848 55.9303 412.014 55.4477 413.381 55.4477C414.749 55.4477 415.915 55.9303 416.88 56.8954C417.845 57.7802 418.328 58.9062 418.328 60.2735C418.328 61.6407 417.845 62.807 416.88 63.7721C415.915 64.7373 414.749 65.2198 413.381 65.2198Z" fill="#5E68BA"/>
<path d="M466.795 144C460.683 144 455.213 142.633 450.388 139.898C445.562 137.164 441.782 133.383 439.047 128.558C436.313 123.651 434.945 118.142 434.945 112.029C434.945 105.836 436.313 100.327 439.047 95.5013C441.782 90.5952 445.562 86.815 450.388 84.1609C455.213 81.4263 460.683 80.059 466.795 80.059C471.862 80.059 476.447 81.0643 480.549 83.0751C484.731 85.0054 488.109 87.8606 490.683 91.6408L486.219 94.8981C483.967 91.7614 481.152 89.429 477.774 87.9008C474.476 86.2922 470.817 85.4879 466.795 85.4879C461.889 85.4879 457.465 86.6139 453.524 88.866C449.664 91.0375 446.608 94.134 444.356 98.1555C442.184 102.177 441.098 106.802 441.098 112.029C441.098 117.257 442.184 121.882 444.356 125.903C446.608 129.925 449.664 133.062 453.524 135.314C457.465 137.485 461.889 138.571 466.795 138.571C470.817 138.571 474.476 137.807 477.774 136.279C481.152 134.67 483.967 132.298 486.219 129.161L490.683 132.418C488.109 136.198 484.731 139.094 480.549 141.105C476.447 143.035 471.862 144 466.795 144Z" fill="#5E68BA"/>
<path d="M524.089 144C518.78 144 514.719 142.512 511.904 139.536C509.089 136.48 507.681 132.298 507.681 126.989V54H513.713V126.265C513.713 130.367 514.638 133.504 516.488 135.676C518.338 137.767 521.113 138.812 524.812 138.812C526.904 138.812 528.914 138.41 530.845 137.606L531.327 142.673C529.075 143.558 526.662 144 524.089 144Z" fill="#5E68BA"/>
<path d="M568.254 138.571C572.356 138.571 576.136 137.847 579.595 136.399C583.134 134.871 586.069 132.66 588.402 129.764L591.901 133.745C589.166 137.123 585.748 139.697 581.646 141.466C577.544 143.156 573.04 144 568.134 144C561.86 144 556.23 142.633 551.244 139.898C546.338 137.164 542.477 133.383 539.662 128.558C536.927 123.732 535.56 118.223 535.56 112.029C535.56 105.836 536.847 100.327 539.421 95.5013C542.075 90.6756 545.734 86.8954 550.399 84.1609C555.064 81.4263 560.332 80.059 566.204 80.059C571.673 80.059 576.579 81.3458 580.922 83.9196C585.346 86.4129 588.844 89.9115 591.418 94.4156C594.072 98.8391 595.52 103.826 595.761 109.375L542.557 119.751C544.086 125.542 547.142 130.126 551.726 133.504C556.311 136.882 561.82 138.571 568.254 138.571ZM566.204 85.3673C561.458 85.3673 557.195 86.4933 553.415 88.7453C549.635 90.9169 546.699 94.0134 544.608 98.0349C542.517 101.976 541.472 106.48 541.472 111.547C541.472 112.432 541.552 113.678 541.713 115.287L589.729 105.877C589.166 102.097 587.839 98.6381 585.748 95.5013C583.657 92.3646 580.922 89.9115 577.544 88.1421C574.166 86.2922 570.386 85.3673 566.204 85.3673Z" fill="#5E68BA"/>
<path d="M630.347 144C625.28 144 620.454 143.236 615.87 141.708C611.285 140.18 607.706 138.249 605.133 135.917L607.907 131.091C610.481 133.263 613.779 135.072 617.8 136.52C621.902 137.968 626.165 138.692 630.588 138.692C636.942 138.692 641.607 137.646 644.583 135.555C647.639 133.464 649.168 130.568 649.168 126.869C649.168 124.214 648.323 122.123 646.634 120.595C645.025 119.067 643.015 117.941 640.602 117.217C638.189 116.493 634.851 115.729 630.588 114.925C625.602 114.04 621.58 113.075 618.524 112.029C615.468 110.984 612.854 109.295 610.682 106.962C608.511 104.63 607.425 101.413 607.425 97.311C607.425 92.3244 609.476 88.2225 613.578 85.0054C617.76 81.7078 623.672 80.059 631.312 80.059C635.334 80.059 639.315 80.622 643.256 81.748C647.197 82.874 650.414 84.3619 652.907 86.2118L650.133 91.0375C647.559 89.1877 644.623 87.7802 641.326 86.815C638.028 85.8499 634.65 85.3673 631.192 85.3673C625.32 85.3673 620.897 86.4531 617.921 88.6247C614.945 90.7962 613.457 93.6515 613.457 97.1904C613.457 100.005 614.302 102.217 615.991 103.826C617.68 105.354 619.731 106.52 622.143 107.324C624.637 108.048 628.095 108.853 632.519 109.737C637.425 110.622 641.366 111.587 644.342 112.633C647.398 113.598 649.972 115.206 652.063 117.458C654.154 119.71 655.2 122.807 655.2 126.748C655.2 131.976 653.028 136.158 648.685 139.295C644.342 142.432 638.229 144 630.347 144Z" fill="#5E68BA"/>
<path d="M732.72 144.72C722 144.72 713.56 141.64 707.4 135.48C701.24 129.32 698.16 120.2 698.16 108.12V60H707.04V107.76C707.04 117.68 709.28 125 713.76 129.72C718.24 134.44 724.56 136.8 732.72 136.8C740.96 136.8 747.32 134.44 751.8 129.72C756.28 125 758.52 117.68 758.52 107.76V60H767.16V108.12C767.16 120.2 764.08 129.32 757.92 135.48C751.84 141.64 743.44 144.72 732.72 144.72ZM793.919 144V60H802.799V144H793.919Z" fill="#5E68BA"/>
<path fill-rule="evenodd" clip-rule="evenodd" d="M655.609 34.8296C653.731 34.8296 651.924 34.5787 650.187 34.0734C648.451 33.5681 647.007 32.8703 645.857 31.9782L647.617 28.0715C650.011 29.7387 652.698 30.5706 655.678 30.5706C657.227 30.5706 658.418 30.3179 659.251 29.8143C660.085 29.309 660.501 28.6112 660.501 27.7192C660.501 26.9217 660.119 26.2995 659.356 25.8543C658.595 25.4075 657.239 24.9743 655.291 24.5515C653.109 24.1046 651.366 23.5667 650.065 22.9325C648.762 22.2982 647.811 21.5196 647.212 20.5915C646.613 19.6634 646.316 18.5204 646.316 17.1592C646.316 15.6587 646.732 14.3198 647.564 13.1476C648.397 11.9737 649.565 11.0525 651.067 10.3839C652.569 9.71356 654.305 9.38013 656.276 9.38013C658.036 9.38013 659.731 9.63794 661.364 10.1536C662.995 10.6709 664.291 11.3636 665.253 12.2332L663.493 16.1382C661.216 14.4728 658.823 13.6392 656.312 13.6392C654.881 13.6392 653.755 13.9142 652.933 14.4676C652.112 15.0176 651.701 15.7739 651.701 16.7364C651.701 17.3001 651.859 17.7642 652.175 18.1286C652.493 18.4912 653.021 18.8143 653.76 19.0962C654.499 19.3781 655.549 19.6703 656.91 19.9762C660.102 20.6809 662.395 21.5832 663.792 22.6867C665.188 23.7884 665.886 25.3146 665.886 27.262C665.886 29.6081 664.983 31.4557 663.175 32.8067C661.371 34.1559 658.847 34.8296 655.609 34.8296ZM678.629 30.8885C679.168 30.8885 679.732 30.8542 680.318 30.782L680.036 34.6543C679.36 34.748 678.677 34.7951 677.994 34.7953C675.366 34.7953 673.448 34.2195 672.24 33.0696C671.032 31.9198 670.427 30.1718 670.427 27.8257V21.2086H667.154V17.2296H670.427V12.1611H675.743V17.2314H680.072V21.2086H675.741V27.7914C675.741 29.8539 676.704 30.8885 678.629 30.8885ZM690.985 34.7953C689.154 34.7953 687.547 34.4257 686.162 33.6867C684.81 32.9792 683.695 31.8895 682.958 30.5534C682.207 29.2042 681.832 27.6143 681.832 25.7839C681.832 23.9534 682.207 22.3636 682.958 21.0143C683.693 19.6805 684.808 18.5957 686.162 17.8982C687.545 17.1712 689.152 16.8086 690.985 16.8086C692.815 16.8086 694.422 17.1712 695.806 17.8982C697.159 18.5957 698.275 19.6805 699.009 21.0143C699.761 22.3636 700.135 23.9534 700.135 25.7839C700.135 27.6143 699.761 29.2042 699.009 30.5534C698.272 31.8896 697.158 32.9793 695.806 33.6867C694.422 34.4257 692.815 34.7953 690.985 34.7953ZM690.985 30.7476C693.566 30.7476 694.855 29.0925 694.855 25.7839C694.855 24.1167 694.522 22.874 693.853 22.0542C693.183 21.2309 692.227 20.8201 690.983 20.8201C688.403 20.8201 687.112 22.4753 687.112 25.7839C687.112 29.0925 688.401 30.7476 690.985 30.7476ZM714.849 21.1742L711.859 21.4887C710.381 21.6296 709.336 22.0473 708.726 22.7382C708.114 23.4309 707.809 24.3539 707.809 25.502V34.5134H702.493V17.2296H707.598V20.1515C708.466 18.1578 710.262 17.0664 712.985 16.879L714.532 16.7725L714.849 21.1742ZM730.294 17.2657H735.502L725.085 40.8487H719.698L723.007 33.5629L715.896 17.2657H721.424L725.789 28.2485L730.294 17.2657ZM747.824 16.8068C749.326 16.8068 750.651 17.1712 751.801 17.8982C752.951 18.627 753.848 19.6651 754.494 21.0143C755.139 22.3636 755.462 23.9293 755.462 25.7134C755.462 27.4975 755.139 29.0753 754.494 30.4485C753.848 31.8201 752.946 32.8892 751.784 33.6506C750.622 34.4137 749.302 34.7953 747.824 34.7953C746.626 34.7953 745.546 34.5426 744.586 34.039C743.623 33.5337 742.884 32.8359 742.368 31.9421V34.5134H737.123V9.69809H742.437V19.5534C742.953 18.6854 743.687 18.01 744.637 17.5287C745.627 17.0384 746.719 16.7909 747.824 16.8068ZM746.275 30.7459C747.518 30.7459 748.48 30.3076 749.161 29.4276C749.841 28.5476 750.182 27.3084 750.182 25.7134C750.182 24.1407 749.841 22.9393 749.161 22.104C748.48 21.2721 747.518 20.8562 746.273 20.8562C745.031 20.8562 744.068 21.2842 743.388 22.1401C742.707 22.9978 742.367 24.2112 742.367 25.7839C742.367 27.3789 742.707 28.606 743.388 29.462C744.068 30.3179 745.031 30.7459 746.275 30.7459ZM767.007 34.7953C765.176 34.7953 763.569 34.4257 762.186 33.6867C760.833 32.9792 759.719 31.8895 758.982 30.5534C758.231 29.2042 757.854 27.6143 757.854 25.7839C757.854 23.9534 758.231 22.3636 758.982 21.0143C759.716 19.6805 760.832 18.5957 762.186 17.8982C763.569 17.1712 765.176 16.8086 767.007 16.8086C768.837 16.8086 770.444 17.1712 771.829 17.8982C773.183 18.5955 774.299 19.6804 775.033 21.0143C775.784 22.3636 776.159 23.9534 776.159 25.7839C776.159 27.6143 775.784 29.2042 775.033 30.5534C774.296 31.8896 773.182 32.9794 771.829 33.6867C770.444 34.4257 768.839 34.7953 767.007 34.7953ZM767.007 30.7476C769.588 30.7476 770.879 29.0925 770.879 25.7839C770.879 24.1167 770.546 22.874 769.875 22.0542C769.207 21.2309 768.251 20.8201 767.007 20.8201C764.425 20.8201 763.136 22.4753 763.136 25.7839C763.136 29.0925 764.425 30.7476 767.007 30.7476ZM786.826 34.7953C784.995 34.7953 783.386 34.4257 782.003 33.6867C780.65 32.9794 779.536 31.8896 778.799 30.5534C778.048 29.2042 777.673 27.6143 777.673 25.7839C777.673 23.9534 778.048 22.3636 778.799 21.0143C779.533 19.6804 780.649 18.5955 782.003 17.8982C783.386 17.1712 784.995 16.8086 786.826 16.8086C788.654 16.8086 790.263 17.1712 791.647 17.8982C793 18.5955 794.116 19.6804 794.85 21.0143C795.601 22.3636 795.976 23.9534 795.976 25.7839C795.976 27.6143 795.601 29.2042 794.85 30.5534C794.113 31.8896 792.999 32.9794 791.647 33.6867C790.263 34.4257 788.654 34.7953 786.826 34.7953ZM786.826 30.7476C789.405 30.7476 790.696 29.0925 790.696 25.7839C790.696 24.1167 790.363 22.874 789.694 22.0542C789.026 21.2309 788.068 20.8201 786.826 20.8201C784.244 20.8201 782.953 22.4753 782.953 25.7839C782.953 29.0925 784.244 30.7476 786.826 30.7476ZM817 34.5134H810.488L803.87 26.8048V34.5134H798.554V9.69809H803.87V24.622L810.242 17.2657H816.577L809.326 25.502L817 34.5134Z" fill="#333333"/>
<path d="M629.971 0.00427749L627.528 0.158965L627.717 5.23615C627.719 5.29876 627.703 5.36059 627.671 5.41443C627.639 5.46827 627.593 5.51188 627.537 5.54018C627.481 5.56848 627.418 5.58029 627.356 5.57424C627.293 5.56819 627.234 5.54451 627.185 5.50599L625.548 4.21693L623.611 5.68646C623.562 5.72426 623.502 5.74715 623.44 5.75247C623.378 5.75779 623.315 5.74532 623.26 5.71652C623.204 5.68771 623.158 5.64374 623.127 5.58974C623.095 5.53574 623.08 5.47391 623.082 5.41146L623.3 0.421933L599.074 1.93443C598.498 1.97079 597.958 2.23111 597.571 2.65982C597.184 3.08853 596.979 3.65165 597.002 4.22896L598.365 40.5513C598.385 41.1064 598.614 41.6334 599.005 42.0277C599.397 42.4219 599.922 42.6544 600.477 42.6791L630.008 44.006C630.307 44.0189 630.605 43.9714 630.885 43.8662C631.164 43.761 631.42 43.6004 631.636 43.3939C631.852 43.1874 632.024 42.9394 632.141 42.6647C632.259 42.3901 632.32 42.0944 632.32 41.7957V2.21287C632.32 1.91073 632.259 1.61177 632.139 1.33443C632.019 1.05709 631.843 0.807237 631.623 0.600297C631.403 0.393356 631.143 0.233713 630.859 0.131205C630.574 0.028697 630.272 -0.0145036 629.971 0.00427749ZM615.327 7.48771C621.085 7.48771 624.232 10.5694 624.232 16.4304C623.453 17.0354 617.656 17.4479 617.656 16.5885C617.776 13.304 616.307 13.1596 615.49 13.1596C614.713 13.1596 613.407 13.3933 613.407 15.1533C613.407 19.4932 624.6 19.2594 624.6 28.0182C624.6 32.9441 620.595 35.6666 615.49 35.6666C610.221 35.6666 605.616 33.5353 606.135 26.143C606.341 25.275 613.039 25.4813 613.039 26.143C612.957 29.1921 613.651 30.0893 615.408 30.0893C616.755 30.0893 617.369 29.3468 617.369 28.0955C617.369 23.6371 606.34 23.4824 606.34 15.308C606.34 10.6158 609.567 7.48771 615.327 7.48771Z" fill="#FF4785"/>
<path d="M28.1702 72.055L75.2183 44.8917L122.266 72.055V126.381L75.2183 153.545L28.1702 126.381V72.055Z" stroke="#5E68BA"/>
<path d="M23.0034 85.418L61.418 47.0034L113.893 61.0641L127.954 113.539L89.5395 151.954L37.0641 137.893L23.0034 85.418Z" stroke="#5E68BA"/>
<path d="M20.6735 99L47.8368 51.9519L102.163 51.9519L129.326 99L102.163 146.048L47.8368 146.048L20.6735 99Z" stroke="#5E68BA"/>
<path d="M37.064 61.0641L89.5393 47.0034L127.954 85.418L113.893 137.893L61.4179 151.954L23.0033 113.539L37.064 61.0641Z" stroke="#5E68BA"/>
<circle cx="74.5" cy="98.5" r="17.5" fill="#5E68BA"/>
</svg>
