<svg id="pui-logo" viewBox="0 0 818 150" fill="none" xmlns="http://www.w3.org/2000/svg">
<path d="M165 119.517V86.3405V40.6166V35.067H195.282C202.359 35.067 208.432 36.193 213.499 38.445C218.566 40.697 222.466 43.9544 225.201 48.2172C227.936 52.3995 229.303 57.5067 229.303 63.5389C229.303 69.4102 227.936 74.4772 225.201 78.7399C222.466 83.0027 218.566 86.2601 213.499 88.5121C208.432 90.7641 202.359 91.8901 195.282 91.8901H171.153V119.517H165ZM165 86.3405H195.282C204.37 86.3405 211.247 84.37 215.912 80.429C220.657 76.4075 223.029 70.7775 223.029 63.5389C223.029 56.2198 220.657 50.5898 215.912 46.6488C211.247 42.6273 204.37 40.6166 195.282 40.6166H165V86.3405Z" fill="currentColor"/>
<path d="M287.235 119.517V105.161L286.994 102.989V79.3432C286.994 73.4718 285.385 69.008 282.168 65.9517C279.032 62.8954 274.407 61.3673 268.294 61.3673C263.951 61.3673 259.89 62.1314 256.109 63.6595C252.41 65.1072 249.233 66.9973 246.579 69.3298L243.562 64.9866C246.699 62.1716 250.479 60 254.903 58.4718C259.327 56.8633 263.951 56.059 268.777 56.059C276.579 56.059 282.57 58.0295 286.753 61.9705C290.935 65.9115 293.026 71.7828 293.026 79.5844V119.517H287.235ZM264.554 120C259.89 120 255.828 119.276 252.369 117.828C248.991 116.3 246.377 114.169 244.528 111.434C242.758 108.7 241.873 105.563 241.873 102.024C241.873 98.807 242.597 95.9115 244.045 93.3378C245.573 90.6836 248.066 88.5523 251.525 86.9437C254.983 85.2547 259.608 84.4102 265.399 84.4102H288.562V89.1153H265.52C259.005 89.1153 254.42 90.3217 251.766 92.7346C249.192 95.1475 247.906 98.1635 247.906 101.783C247.906 105.804 249.434 109.021 252.49 111.434C255.546 113.847 259.849 115.054 265.399 115.054C270.707 115.054 275.171 113.847 278.79 111.434C282.49 109.021 285.225 105.523 286.994 100.938L288.683 105.04C286.994 109.625 284.099 113.284 279.997 116.019C275.975 118.673 270.828 120 264.554 120Z" fill="currentColor"/>
<path d="M323.671 70.2949C325.601 65.7105 328.617 62.2118 332.719 59.7989C336.821 57.3056 341.807 56.059 347.679 56.059V61.9705L346.231 61.8499C339.234 61.8499 333.764 64.0617 329.823 68.4853C325.882 72.8284 323.912 78.9008 323.912 86.7024V119.517H317.88V56.5416H323.671V70.2949Z" fill="currentColor"/>
<path d="M393.616 115.536C392.087 116.984 390.157 118.11 387.825 118.914C385.573 119.638 383.2 120 380.707 120C375.238 120 371.015 118.512 368.039 115.536C365.063 112.48 363.575 108.257 363.575 102.869V42.7882H369.607V56.5416H389.634V61.7292H369.607V102.265C369.607 106.367 370.573 109.504 372.503 111.676C374.514 113.767 377.449 114.812 381.31 114.812C385.251 114.812 388.508 113.646 391.082 111.314L393.616 115.536Z" fill="currentColor"/>
<path d="M410.365 56.5416H416.397V119.517H410.365V56.5416ZM413.381 41.2198C412.014 41.2198 410.848 40.7775 409.883 39.8928C408.917 38.9276 408.435 37.7614 408.435 36.3941C408.435 35.0268 408.917 33.8606 409.883 32.8954C410.848 31.9303 412.014 31.4477 413.381 31.4477C414.749 31.4477 415.915 31.9303 416.88 32.8954C417.845 33.7802 418.328 34.9062 418.328 36.2735C418.328 37.6407 417.845 38.807 416.88 39.7721C415.915 40.7373 414.749 41.2198 413.381 41.2198Z" fill="currentColor"/>
<path d="M466.795 120C460.683 120 455.213 118.633 450.388 115.898C445.562 113.164 441.782 109.383 439.047 104.558C436.313 99.6515 434.945 94.1421 434.945 88.0295C434.945 81.8365 436.313 76.3271 439.047 71.5013C441.782 66.5952 445.562 62.815 450.388 60.1609C455.213 57.4263 460.683 56.059 466.795 56.059C471.862 56.059 476.447 57.0643 480.549 59.0751C484.731 61.0054 488.109 63.8606 490.683 67.6408L486.219 70.8981C483.967 67.7614 481.152 65.429 477.774 63.9008C474.476 62.2922 470.817 61.4879 466.795 61.4879C461.889 61.4879 457.465 62.6139 453.524 64.866C449.664 67.0375 446.608 70.134 444.356 74.1555C442.184 78.1769 441.098 82.8016 441.098 88.0295C441.098 93.2574 442.184 97.882 444.356 101.903C446.608 105.925 449.664 109.062 453.524 111.314C457.465 113.485 461.889 114.571 466.795 114.571C470.817 114.571 474.476 113.807 477.774 112.279C481.152 110.67 483.967 108.298 486.219 105.161L490.683 108.418C488.109 112.198 484.731 115.094 480.549 117.105C476.447 119.035 471.862 120 466.795 120Z" fill="currentColor"/>
<path d="M524.089 120C518.78 120 514.719 118.512 511.904 115.536C509.089 112.48 507.681 108.298 507.681 102.989V30H513.713V102.265C513.713 106.367 514.638 109.504 516.488 111.676C518.338 113.767 521.113 114.812 524.812 114.812C526.904 114.812 528.914 114.41 530.845 113.606L531.327 118.673C529.075 119.558 526.662 120 524.089 120Z" fill="currentColor"/>
<path d="M568.254 114.571C572.356 114.571 576.136 113.847 579.595 112.399C583.134 110.871 586.069 108.66 588.402 105.764L591.901 109.745C589.166 113.123 585.748 115.697 581.646 117.466C577.544 119.156 573.04 120 568.134 120C561.86 120 556.23 118.633 551.244 115.898C546.338 113.164 542.477 109.383 539.662 104.558C536.927 99.7319 535.56 94.2225 535.56 88.0295C535.56 81.8365 536.847 76.3271 539.421 71.5013C542.075 66.6756 545.734 62.8954 550.399 60.1609C555.064 57.4263 560.332 56.059 566.204 56.059C571.673 56.059 576.579 57.3458 580.922 59.9196C585.346 62.4129 588.844 65.9115 591.418 70.4156C594.072 74.8391 595.52 79.8257 595.761 85.3753L542.557 95.7507C544.086 101.542 547.142 106.126 551.726 109.504C556.311 112.882 561.82 114.571 568.254 114.571ZM566.204 61.3673C561.458 61.3673 557.195 62.4933 553.415 64.7453C549.635 66.9169 546.699 70.0134 544.608 74.0349C542.517 77.9759 541.472 82.4799 541.472 87.5469C541.472 88.4316 541.552 89.6783 541.713 91.2869L589.729 81.8767C589.166 78.0965 587.839 74.6381 585.748 71.5013C583.657 68.3646 580.922 65.9115 577.544 64.1421C574.166 62.2922 570.386 61.3673 566.204 61.3673Z" fill="currentColor"/>
<path d="M630.347 120C625.28 120 620.454 119.236 615.87 117.708C611.285 116.18 607.706 114.249 605.133 111.917L607.907 107.091C610.481 109.263 613.779 111.072 617.8 112.52C621.902 113.968 626.165 114.692 630.588 114.692C636.942 114.692 641.607 113.646 644.583 111.555C647.639 109.464 649.168 106.568 649.168 102.869C649.168 100.214 648.323 98.1233 646.634 96.5952C645.025 95.067 643.015 93.941 640.602 93.2172C638.189 92.4933 634.851 91.7292 630.588 90.9249C625.602 90.0402 621.58 89.0751 618.524 88.0295C615.468 86.9839 612.854 85.2949 610.682 82.9625C608.511 80.63 607.425 77.4129 607.425 73.311C607.425 68.3244 609.476 64.2225 613.578 61.0054C617.76 57.7078 623.672 56.059 631.312 56.059C635.334 56.059 639.315 56.622 643.256 57.748C647.197 58.874 650.414 60.3619 652.907 62.2118L650.133 67.0375C647.559 65.1877 644.623 63.7802 641.326 62.815C638.028 61.8499 634.65 61.3673 631.192 61.3673C625.32 61.3673 620.897 62.4531 617.921 64.6247C614.945 66.7962 613.457 69.6515 613.457 73.1904C613.457 76.0054 614.302 78.2172 615.991 79.8257C617.68 81.3539 619.731 82.5201 622.143 83.3244C624.637 84.0483 628.095 84.8525 632.519 85.7373C637.425 86.622 641.366 87.5871 644.342 88.6327C647.398 89.5979 649.972 91.2064 652.063 93.4584C654.154 95.7105 655.2 98.807 655.2 102.748C655.2 107.976 653.028 112.158 648.685 115.295C644.342 118.432 638.229 120 630.347 120Z" fill="currentColor"/>
<path d="M732.72 120.72C722 120.72 713.56 117.64 707.4 111.48C701.24 105.32 698.16 96.2 698.16 84.12V36H707.04V83.76C707.04 93.68 709.28 101 713.76 105.72C718.24 110.44 724.56 112.8 732.72 112.8C740.96 112.8 747.32 110.44 751.8 105.72C756.28 101 758.52 93.68 758.52 83.76V36H767.16V84.12C767.16 96.2 764.08 105.32 757.92 111.48C751.84 117.64 743.44 120.72 732.72 120.72ZM793.919 120V36H802.799V120H793.919Z" fill="currentColor"/>
<path d="M28.1701 48.055L75.2182 20.8917L122.266 48.055V102.381L75.2182 129.545L28.1701 102.381V48.055Z" stroke="currentColor"/>
<path d="M23.0034 61.418L61.418 23.0034L113.893 37.0641L127.954 89.5395L89.5395 127.954L37.0641 113.893L23.0034 61.418Z" stroke="currentColor"/>
<path d="M20.6735 75L47.8368 27.9519L102.163 27.9519L129.326 75L102.163 122.048L47.8368 122.048L20.6735 75Z" stroke="currentColor"/>
<path d="M37.0641 37.0641L89.5395 23.0034L127.954 61.418L113.893 113.893L61.418 127.954L23.0034 89.5395L37.0641 37.0641Z" stroke="currentColor"/>
<circle cx="74.5" cy="74.5" r="17.5" fill="currentColor"/>
</svg>
