<?xml version="1.0" standalone="no"?>
<!DOCTYPE svg PUBLIC "-//W3C//DTD SVG 20010904//EN"
 "http://www.w3.org/TR/2001/REC-SVG-20010904/DTD/svg10.dtd">
<svg version="1.0" xmlns="http://www.w3.org/2000/svg"
 width="700.000000pt" height="700.000000pt" viewBox="0 0 700.000000 700.000000"
 preserveAspectRatio="xMidYMid meet">
<metadata>
Created by potrace 1.14, written by Peter Selinger 2001-2017
</metadata>
<g transform="translate(0.000000,700.000000) scale(0.100000,-0.100000)"
fill="#000000" stroke="none">
<path d="M3341 5959 l-155 -90 -151 40 c-84 23 -158 41 -166 41 -8 0 -66 -52
-129 -115 l-115 -115 -205 0 -206 0 -82 -142 c-45 -79 -90 -157 -100 -173 -17
-28 -32 -34 -163 -69 -79 -21 -149 -44 -156 -50 -6 -6 -28 -74 -48 -151 -20
-77 -38 -147 -41 -155 -2 -9 -78 -58 -169 -110 l-165 -95 0 -195 0 -195 -120
-120 c-66 -66 -120 -127 -120 -135 0 -8 17 -78 38 -156 l38 -141 -93 -159
c-50 -87 -92 -165 -93 -172 0 -7 43 -88 96 -180 l97 -167 -16 -65 c-9 -36 -29
-113 -45 -172 l-29 -106 123 -123 124 -124 0 -180 0 -181 144 -82 c79 -45 153
-90 164 -100 13 -11 33 -70 62 -182 24 -91 46 -168 49 -172 4 -4 81 -27 171
-51 l165 -44 85 -146 84 -147 181 0 180 0 141 -141 141 -141 171 46 c94 25
176 46 182 46 6 0 73 -36 149 -80 76 -44 144 -80 151 -80 7 0 78 38 159 85
l146 84 184 -50 185 -50 141 141 140 140 161 0 160 0 79 139 79 139 197 52
196 52 50 187 50 186 146 85 147 85 0 170 0 170 135 135 136 136 -51 188 c-27
103 -50 192 -50 197 0 5 36 72 80 149 44 77 80 144 80 150 0 6 -34 70 -75 141
-41 72 -75 137 -75 146 0 8 21 91 46 185 l46 171 -136 136 -136 136 0 181 0
180 -145 83 c-80 45 -149 90 -154 99 -5 9 -28 87 -50 172 -23 85 -45 158 -49
161 -4 3 -79 25 -167 48 -88 23 -167 44 -175 47 -8 2 -58 78 -110 169 l-94
165 -181 0 -180 0 -120 119 -120 118 -160 -43 c-88 -24 -167 -44 -176 -44 -9
0 -86 41 -172 90 -86 50 -162 90 -169 90 -7 -1 -82 -41 -167 -91z m291 -30
c67 -39 126 -74 130 -78 4 -4 -48 -22 -116 -39 l-123 -33 -119 32 c-65 17
-124 34 -131 38 -9 4 149 106 234 150 0 1 57 -31 125 -70z m-628 -62 l119 -33
-97 -57 -97 -57 -117 0 -117 0 90 90 c49 50 92 90 95 90 3 0 59 -15 124 -33z
m1261 -57 l90 -90 -132 0 -131 0 -93 54 -92 54 54 16 c137 39 195 55 204 55 6
1 51 -39 100 -89z m-925 -33 l85 -24 -40 -13 c-42 -14 -355 -27 -343 -15 4 4
35 25 70 46 73 44 89 45 228 6z m572 -9 l73 -43 -122 -3 c-92 -2 -137 2 -180
14 -32 10 -52 19 -45 22 27 9 177 50 189 51 6 0 44 -18 85 -41z m-1437 -198
l-100 -99 -133 -36 c-74 -20 -138 -35 -142 -33 -5 2 25 63 67 136 l77 132 165
0 166 0 -100 -100z m340 86 c-64 -43 -222 -127 -258 -136 -23 -6 -51 -14 -62
-17 -11 -3 17 32 65 81 l85 86 95 0 c82 0 92 -2 75 -14z m150 -26 c-77 -22
-144 -39 -150 -40 -5 0 19 18 55 40 63 38 68 39 150 39 l85 -1 -140 -38z
m1092 -45 l318 -86 150 -86 c83 -48 189 -109 237 -137 74 -42 116 -79 282
-245 l195 -196 158 -275 159 -275 62 -232 62 -232 0 -343 0 -343 -51 -190 -50
-190 -199 -345 -199 -345 -148 -146 -148 -146 -270 -155 c-148 -86 -283 -162
-300 -171 -16 -8 -116 -38 -220 -66 l-190 -51 -382 0 -382 0 -221 60 -221 59
-264 152 -264 153 -205 205 -205 206 -127 220 -127 220 -83 310 -84 310 0 252
0 252 94 350 94 350 83 146 84 145 275 274 275 275 185 107 185 107 340 93
340 92 222 1 221 1 319 -85z m79 54 c30 -17 53 -33 51 -35 -1 -2 -57 12 -122
31 l-120 33 68 1 c58 1 75 -3 123 -30z m354 -55 c48 -48 76 -84 65 -81 -11 3
-49 13 -85 22 -36 9 -105 39 -155 67 -146 83 -145 78 -20 78 l110 0 85 -86z
m339 -40 c40 -69 71 -128 69 -129 -2 -2 -53 9 -113 26 l-110 29 -100 100 -100
100 141 0 142 0 71 -126z m-154 -146 l30 -30 -50 27 c-66 37 -77 48 -40 40 17
-4 44 -21 60 -37z m-2255 28 c0 -2 -7 -7 -16 -10 -8 -3 -12 -2 -9 4 6 10 25
14 25 6z m-160 -71 c-38 -38 -297 -202 -305 -193 -2 2 17 37 41 78 24 41 45
79 46 83 3 7 221 72 253 76 5 1 -11 -19 -35 -44z m2680 -10 c10 -6 100 -165
94 -165 -24 0 -172 103 -224 154 l-64 66 93 -25 c51 -14 97 -27 101 -30z m235
-60 l120 -32 36 -129 c19 -71 34 -131 33 -133 -2 -2 -55 27 -118 63 l-115 67
-47 82 c-26 45 -54 93 -63 106 -15 23 -14 23 9 16 14 -5 79 -22 145 -40z
m-3255 -77 c-60 -102 -61 -103 -147 -155 -49 -28 -89 -51 -90 -50 -3 4 57 222
65 237 8 12 180 67 219 69 7 1 -15 -45 -47 -101z m140 -51 c0 -1 -59 -61 -131
-132 -126 -125 -130 -128 -99 -75 17 30 38 69 46 85 11 20 42 46 97 77 83 48
87 50 87 45z m3053 -105 c10 -18 17 -32 15 -32 -2 0 -26 23 -53 52 -48 49 -48
50 -15 32 19 -11 43 -34 53 -52z m297 -221 c12 -47 25 -95 28 -106 10 -41
-158 138 -203 217 -25 42 -45 79 -45 82 0 3 44 -21 99 -52 l98 -56 23 -85z
m-3680 48 c-39 -68 -85 -137 -101 -154 l-30 -30 6 27 c4 15 19 69 33 120 l27
92 65 37 c35 21 66 36 68 35 1 -2 -29 -59 -68 -127z m-133 -3 c-3 -7 -20 -67
-37 -133 l-32 -120 -94 -94 -94 -94 0 156 0 155 123 72 c128 74 143 81 134 58z
m4083 -270 l0 -141 -83 83 -83 83 -27 102 c-15 56 -30 112 -33 125 -6 20 8 14
110 -45 l116 -67 0 -140z m-195 -56 c8 -30 13 -55 12 -57 -2 -1 -23 32 -47 75
-24 42 -50 88 -58 102 -10 16 2 8 32 -21 36 -34 50 -58 61 -99z m193 -264 l-3
-107 -36 63 c-22 38 -49 110 -68 178 l-31 114 71 -70 70 -70 -3 -108z m-4184
207 c-3 -16 -38 -85 -78 -155 l-71 -128 -3 77 -3 77 78 78 c43 43 79 78 80 78
2 0 1 -12 -3 -27z m4417 -498 c-20 -73 -38 -136 -41 -139 -3 -3 -36 47 -73
111 l-67 116 0 131 0 131 108 -108 109 -108 -36 -134z m-4683 15 c-35 -61 -66
-103 -69 -97 -4 7 -19 57 -33 112 l-27 99 93 93 93 93 3 -95 3 -96 -63 -109z
m155 70 l-38 -143 -3 82 c-3 79 -1 86 33 148 20 35 39 62 41 60 3 -2 -12 -69
-33 -147z m4296 -30 l-1 -25 -8 25 c-4 14 -8 32 -9 40 -1 13 0 13 9 0 5 -8 9
-26 9 -40z m-4405 -375 c-9 -38 -19 -75 -23 -82 -3 -7 -21 43 -39 111 l-33
123 53 91 53 91 3 -132 c2 -97 -2 -150 -14 -202z m4563 43 c-9 -29 -21 -73
-28 -98 l-12 -45 -33 125 c-25 93 -34 146 -34 205 l0 80 61 -107 61 -107 -15
-53z m-4653 -101 l38 -138 -34 -125 c-18 -68 -35 -124 -38 -124 -3 0 -40 61
-82 135 l-77 135 33 58 c18 31 52 90 75 130 24 41 44 72 45 70 2 -2 20 -65 40
-141z m4765 -12 l60 -105 -64 -112 c-39 -68 -66 -106 -70 -97 -3 7 -16 52 -28
99 l-24 85 31 118 c17 64 31 117 32 117 2 0 29 -47 63 -105z m-197 -201 l-20
-69 0 145 0 145 20 -76 c20 -77 20 -77 0 -145z m-4463 69 c-1 -42 -2 -44 -9
-21 -7 25 -3 68 6 68 2 0 4 -21 3 -47z m-15 -193 c13 -47 16 -96 14 -177 l-3
-113 -49 85 -48 85 27 106 c16 59 31 100 35 92 4 -7 15 -42 24 -78z m4551 -2
l17 -67 -54 -93 -53 -93 -3 49 c-4 55 57 303 70 284 4 -7 14 -43 23 -80z m78
-290 c21 -79 37 -148 37 -153 0 -6 -47 -57 -105 -115 l-105 -105 0 151 0 151
61 106 c34 59 65 107 68 107 4 0 24 -64 44 -142z m-4670 -7 l57 -98 0 -124 0
-124 -96 96 -95 95 33 127 c18 70 35 127 38 127 3 0 31 -44 63 -99z m164 -175
c-2 -4 -15 14 -30 42 -22 40 -27 62 -26 113 l0 64 29 -105 c16 -58 28 -109 27
-114z m4213 -311 l-70 -70 14 50 c8 28 27 95 41 150 15 55 39 122 54 149 l26
49 3 -128 3 -129 -71 -71z m-4207 193 c45 -79 97 -215 97 -255 0 -4 -36 28
-80 72 l-80 80 0 104 c0 57 2 102 4 100 2 -2 28 -48 59 -101z m4092 -243 c-24
-87 -26 -91 -100 -165 l-76 -75 97 168 c53 92 98 166 100 164 2 -2 -7 -43 -21
-92z m-3934 -234 c16 -62 29 -115 27 -116 -2 -1 -58 29 -125 67 l-123 70 0
142 0 141 95 -95 95 -95 31 -114z m4119 150 l0 -129 -107 -61 c-60 -33 -109
-57 -110 -53 -2 4 10 54 26 111 l29 104 78 78 c43 44 80 79 81 79 2 0 3 -58 3
-129z m-4086 -6 c28 -50 28 -50 3 -25 -13 14 -28 38 -32 55 -8 36 -7 34 29
-30z m180 -311 l53 -91 -86 49 -87 50 -26 100 -27 101 60 -59 c34 -34 82 -98
113 -150z m3643 108 l-23 -83 -109 -64 c-60 -35 -111 -62 -113 -60 -2 2 9 23
23 47 29 46 238 263 242 251 2 -5 -8 -45 -20 -91z m-47 -168 c0 -3 -16 -68
-36 -144 l-37 -137 -141 -38 c-77 -21 -149 -40 -159 -43 -13 -3 2 29 50 112
l68 116 120 70 c117 68 135 76 135 64z m-3550 -85 c57 -32 66 -44 159 -210
l31 -56 -131 36 -132 36 -33 125 c-19 69 -34 131 -34 138 0 9 14 5 43 -13 23
-14 67 -39 97 -56z m115 20 l60 -62 -41 23 c-25 13 -51 38 -63 61 -12 22 -21
39 -19 39 2 0 30 -28 63 -61z m185 -195 c41 -26 182 -169 160 -162 -8 3 -57
15 -108 28 l-92 24 -44 75 c-77 136 -77 129 -10 91 33 -19 75 -44 94 -56z
m2865 4 c-20 -35 -43 -77 -52 -95 -14 -28 -26 -34 -93 -52 -42 -12 -80 -21
-85 -21 -17 0 149 161 200 196 28 18 54 33 58 33 5 1 -8 -27 -28 -61z m-285
-143 c-47 -47 -66 -58 -124 -75 -39 -11 -71 -19 -72 -17 -3 2 237 145 246 146
3 1 -20 -24 -50 -54z m-2267 -39 c37 -21 67 -39 67 -41 0 -2 -23 3 -52 11 -38
9 -63 25 -92 55 -29 29 -33 38 -16 27 14 -8 55 -32 93 -52z m-166 -33 l103
-27 77 -78 78 -78 -141 0 -140 0 -59 103 c-32 56 -61 106 -63 111 -3 5 6 6 19
3 13 -4 70 -19 126 -34z m2548 -82 l-57 -101 -121 0 -122 0 76 76 c75 75 77
76 175 104 54 15 101 26 102 24 2 -1 -22 -48 -53 -103z m-2074 -64 l64 -37
-105 0 -106 0 -64 65 -64 65 105 -28 c59 -16 133 -45 170 -65z m1769 28 l-64
-65 -116 0 -115 0 45 27 c33 19 235 86 310 102 2 1 -25 -28 -60 -64z m-1583
-61 c-3 -3 -12 -4 -19 -1 -8 3 -5 6 6 6 11 1 17 -2 13 -5z m89 -125 c68 -40
124 -75 124 -79 0 -3 -21 -12 -47 -18 -27 -6 -87 -22 -134 -35 l-87 -25 -113
114 -114 114 124 0 123 0 124 -71z m269 32 l140 -38 -55 -16 c-153 -44 -140
-45 -232 9 -46 26 -96 56 -113 66 l-30 18 75 0 c55 -1 113 -11 215 -39z m329
12 l-91 -25 -89 25 -89 25 180 0 180 0 -91 -25z m405 23 c-2 -2 -51 -31 -108
-64 l-103 -59 -77 19 c-41 11 -81 23 -88 27 -21 11 245 79 316 80 35 1 62 -1
60 -3z m264 -108 l-113 -113 -92 24 c-51 14 -117 32 -147 41 l-54 16 124 71
124 72 135 0 135 1 -112 -112z m-547 -51 c3 -2 -47 -34 -110 -70 l-115 -66
-110 62 c-61 34 -111 64 -111 67 0 3 53 19 118 36 l117 30 104 -28 c57 -15
105 -29 107 -31z"/>
<path d="M3321 4329 c-296 -58 -536 -277 -631 -574 -34 -106 -39 -301 -12
-416 38 -157 110 -284 224 -396 162 -160 344 -235 573 -236 148 0 224 17 360
83 177 86 289 198 375 375 66 136 83 212 83 360 -1 226 -76 410 -231 569 -163
167 -356 247 -587 245 -60 -1 -130 -5 -154 -10z m359 -480 c98 -28 96 -27 69
-98 -18 -46 -28 -60 -39 -55 -106 47 -231 60 -290 29 -37 -19 -56 -60 -41 -92
14 -31 52 -48 173 -78 164 -42 229 -86 248 -170 23 -100 -40 -204 -148 -246
-75 -29 -228 -31 -317 -5 -68 20 -135 52 -135 65 0 5 11 33 25 63 l25 55 57
-28 c123 -59 291 -58 323 2 32 59 -4 98 -112 124 -112 27 -186 54 -230 81 -82
52 -103 180 -42 266 75 106 251 141 434 87z"/>
</g>
</svg>
