<svg id="w3c" viewBox="0 0 64 64" fill="none" xmlns="http://www.w3.org/2000/svg">
<path d="M63.0453 14.9387L60.5627 19.8933C60.5627 19.8933 59.496 17.9253 58.4427 17.024C57.4373 16.1653 56.1387 15.3707 54.496 15.5413C52.904 15.7067 51.1093 17.1067 49.904 19.4347C48.536 22.0853 48.0693 24.7707 48.0587 27.7333C48.0453 31.8827 49.5787 34.7147 49.5787 34.7147C49.5787 34.7147 49.2267 33.3973 49.2853 31.168C49.3227 29.7813 49.3307 28.264 50.3787 25.1387C51.2587 22.5253 53.2693 20.4053 55.0453 20.04C56.424 19.7547 57.304 19.96 58.6613 20.9173C60.2693 22.0507 61.2373 24.0987 61.2373 24.0987L63.76 19.272L63.0453 14.9387ZM0 15.1307L10.0533 49.0587H10.4693L16.752 28.0293L23.0373 49.0587H23.456L32.064 20.0053L32.4693 19.3173H39.5493L33.6827 29.456V31.4667H35.36C37.5093 31.4667 39.088 32.1227 40.0933 33.4347C40.9573 34.5547 41.392 36.1307 41.392 38.1707C41.392 40.0133 40.9867 41.592 40.1787 42.904C39.368 44.216 38.376 44.872 37.2027 44.872C36.0853 44.872 35.1147 44.504 34.2907 43.7627C33.4693 43.024 32.8053 42.0107 32.3013 40.7253L28.8667 42.1493C29.5627 44.272 30.64 45.9547 32.0933 47.1973C33.5086 48.427 35.3281 49.0908 37.2027 49.0613C39.8 49.0613 41.9147 48.0133 43.5493 45.92C45.184 43.8267 46 41.2427 46 38.1707C46 35.6853 45.44 33.5227 44.3253 31.6773C43.2053 29.8373 41.56 28.5653 39.3813 27.864L45.584 17.1813V15.128H29.112L23.04 35.784L16.9653 15.1307H12.5653L14.576 21.8747L10.4693 35.7813L4.4 15.1307H0ZM46.5067 38.8107C46.5067 38.8107 47.128 40.824 47.5173 41.68C47.7413 42.1733 48.4293 43.68 49.4053 44.9867C50.3147 46.2133 52.0827 48.3147 54.768 48.7893C57.456 49.264 59.3013 48.0587 59.7573 47.7653C60.4898 47.2496 61.1696 46.6627 61.7867 46.0133C62.3683 45.3699 62.8946 44.6786 63.36 43.9467C63.5859 43.5698 63.7993 43.1856 64 42.7947L63.3573 39.448C63.3573 39.448 62.2427 41.4427 61.5493 42.2107C60.8533 42.9787 59.6107 44.328 58.0773 45.0053C56.5413 45.68 55.7387 45.8107 54.2213 45.664C52.704 45.52 51.296 44.6427 50.8027 44.2773C50.3093 43.9093 49.048 42.832 48.336 41.824C47.6213 40.8213 46.5067 38.8107 46.5067 38.8107Z" fill="currentColor"/>
</svg>
