<svg width="290" height="80" viewBox="0 0 290 80" fill="none" xmlns="http://www.w3.org/2000/svg">
<g filter="url(#filter0_d_114_7)">
<rect x="3" y="3" width="280" height="70" rx="10" fill="#FAFDFA" fill-opacity="0.95" shape-rendering="crispEdges"/>
</g>
<path fill-rule="evenodd" clip-rule="evenodd" d="M85.5895 52.5719C83.4551 52.5719 81.4028 52.2868 79.4285 51.7127C77.4562 51.1386 75.8159 50.3457 74.5095 49.3323L76.5092 44.8936C79.2294 46.7878 82.2815 47.7329 85.6676 47.7329C87.4271 47.7329 88.7803 47.4459 89.7274 46.8737C90.6745 46.2996 91.1471 45.5068 91.1471 44.4933C91.1471 43.5872 90.7136 42.8803 89.8465 42.3745C88.9815 41.8668 87.4407 41.3747 85.2283 40.8943C82.7482 40.3866 80.7681 39.7754 79.2899 39.0549C77.8097 38.3343 76.7298 37.4497 76.0483 36.3952C75.3687 35.3407 75.0309 34.0421 75.0309 32.4955C75.0309 30.7907 75.5035 29.2695 76.4486 27.9377C77.3957 26.604 78.7216 25.5573 80.4284 24.7977C82.1351 24.0361 84.1074 23.6573 86.3472 23.6573C88.3468 23.6573 90.2723 23.9502 92.1274 24.536C93.9806 25.1238 95.4529 25.9108 96.5465 26.8989L94.5469 31.3356C91.9594 29.4433 89.2412 28.4962 86.3882 28.4962C84.7615 28.4962 83.4825 28.8087 82.5491 29.4375C81.6156 30.0624 81.1489 30.9216 81.1489 32.0151C81.1489 32.6556 81.3286 33.1829 81.6879 33.5969C82.0492 34.0089 82.6486 34.376 83.4883 34.6963C84.328 35.0165 85.5212 35.3485 87.0678 35.6961C90.694 36.4967 93.299 37.5219 94.8866 38.7756C96.4723 40.0273 97.2651 41.7614 97.2651 43.9739C97.2651 46.6394 96.2399 48.7386 94.1856 50.2735C92.1352 51.8064 89.2685 52.5719 85.5895 52.5719ZM111.743 48.0942C112.356 48.0942 112.997 48.0551 113.662 47.9731L113.342 52.3727C112.574 52.4791 111.798 52.5326 111.022 52.5328C108.037 52.5328 105.857 51.8787 104.484 50.5723C103.112 49.2659 102.424 47.2799 102.424 44.6144V37.0962H98.7063V32.5756H102.424V26.8169H108.464V32.5775H113.383V37.0962H108.462V44.5753C108.462 46.9186 109.556 48.0942 111.743 48.0942ZM125.781 52.5328C123.702 52.5328 121.876 52.113 120.302 51.2733C118.766 50.4695 117.5 49.2315 116.662 47.7134C115.809 46.1805 115.383 44.3742 115.383 42.2945C115.383 40.2148 115.809 38.4085 116.662 36.8756C117.497 35.3601 118.764 34.1276 120.302 33.3352C121.874 32.5092 123.7 32.0971 125.781 32.0971C127.861 32.0971 129.687 32.5092 131.259 33.3352C132.797 34.1276 134.064 35.3601 134.899 36.8756C135.752 38.4085 136.178 40.2148 136.178 42.2945C136.178 44.3742 135.752 46.1805 134.899 47.7134C134.061 49.2315 132.795 50.4696 131.259 51.2733C129.687 52.113 127.861 52.5328 125.781 52.5328ZM125.781 47.9341C128.714 47.9341 130.179 46.0536 130.179 42.2945C130.179 40.4003 129.8 38.9885 129.041 38.057C128.279 37.1216 127.193 36.6549 125.779 36.6549C122.848 36.6549 121.382 38.5354 121.382 42.2945C121.382 46.0536 122.846 47.9341 125.781 47.9341ZM152.896 37.0572L149.498 37.4145C147.818 37.5746 146.631 38.0492 145.938 38.8342C145.243 39.6211 144.897 40.6698 144.897 41.9742V52.2126H138.857V32.5756H144.657V35.8953C145.643 33.6301 147.684 32.3901 150.777 32.1772L152.534 32.0561L152.896 37.0572ZM170.443 32.6166H176.36L164.524 59.4105H158.404L162.163 51.1327L154.085 32.6166H160.365L165.325 45.0947L170.443 32.6166ZM190.359 32.0952C192.066 32.0952 193.572 32.5092 194.878 33.3352C196.184 34.1632 197.204 35.3426 197.938 36.8756C198.67 38.4085 199.037 40.1874 199.037 42.2144C199.037 44.2414 198.67 46.034 197.938 47.5943C197.204 49.1526 196.179 50.3672 194.859 51.2323C193.538 52.0993 192.039 52.5328 190.359 52.5328C188.998 52.5328 187.772 52.2458 186.68 51.6736C185.587 51.0995 184.747 50.3067 184.161 49.2912V52.2126H178.201V24.0185H184.239V35.2157C184.825 34.2296 185.659 33.4621 186.739 32.9154C187.863 32.3582 189.105 32.0771 190.359 32.0952ZM188.6 47.9321C190.012 47.9321 191.105 47.4342 191.879 46.4344C192.652 45.4345 193.039 44.0266 193.039 42.2144C193.039 40.4276 192.652 39.0627 191.879 38.1136C191.105 37.1685 190.012 36.6959 188.598 36.6959C187.186 36.6959 186.093 37.1821 185.319 38.1546C184.546 39.1291 184.159 40.5077 184.159 42.2945C184.159 44.1067 184.546 45.5009 185.319 46.4734C186.093 47.4459 187.186 47.9321 188.6 47.9321ZM212.154 52.5328C210.074 52.5328 208.249 52.113 206.677 51.2733C205.14 50.4695 203.874 49.2315 203.037 47.7134C202.183 46.1805 201.756 44.3742 201.756 42.2945C201.756 40.2148 202.183 38.4085 203.037 36.8756C203.871 35.3601 205.139 34.1276 206.677 33.3352C208.249 32.5092 210.074 32.0971 212.154 32.0971C214.234 32.0971 216.06 32.5092 217.634 33.3352C219.172 34.1274 220.439 35.3599 221.274 36.8756C222.127 38.4085 222.553 40.2148 222.553 42.2945C222.553 44.3742 222.127 46.1805 221.274 47.7134C220.436 49.2316 219.17 50.4697 217.634 51.2733C216.06 52.113 214.236 52.5328 212.154 52.5328ZM212.154 47.9341C215.087 47.9341 216.554 46.0536 216.554 42.2945C216.554 40.4003 216.175 38.9885 215.413 38.057C214.654 37.1216 213.568 36.6549 212.154 36.6549C209.221 36.6549 207.757 38.5354 207.757 42.2945C207.757 46.0536 209.221 47.9341 212.154 47.9341ZM234.672 52.5328C232.592 52.5328 230.764 52.113 229.192 51.2733C227.656 50.4697 226.39 49.2316 225.552 47.7134C224.699 46.1805 224.273 44.3742 224.273 42.2945C224.273 40.2148 224.699 38.4085 225.552 36.8756C226.387 35.3599 227.654 34.1274 229.192 33.3352C230.764 32.5092 232.592 32.0971 234.672 32.0971C236.749 32.0971 238.577 32.5092 240.149 33.3352C241.687 34.1274 242.954 35.3599 243.789 36.8756C244.642 38.4085 245.068 40.2148 245.068 42.2945C245.068 44.3742 244.642 46.1805 243.789 47.7134C242.951 49.2316 241.685 50.4697 240.149 51.2733C238.577 52.113 236.749 52.5328 234.672 52.5328ZM234.672 47.9341C237.603 47.9341 239.069 46.0536 239.069 42.2945C239.069 40.4003 238.69 38.9885 237.931 38.057C237.171 37.1216 236.083 36.6549 234.672 36.6549C231.738 36.6549 230.272 38.5354 230.272 42.2945C230.272 46.0536 231.738 47.9341 234.672 47.9341ZM268.954 52.2126H261.555L254.037 43.4544V52.2126H247.997V24.0185H254.037V40.9744L261.276 32.6166H268.474L260.235 41.9742L268.954 52.2126Z" fill="#333333"/>
<path d="M56.4598 13.0049L53.6849 13.1806L53.8997 18.9491C53.9018 19.0202 53.8836 19.0905 53.8473 19.1516C53.8109 19.2128 53.7579 19.2624 53.6944 19.2945C53.6309 19.3267 53.5596 19.3401 53.4887 19.3332C53.4179 19.3263 53.3505 19.2994 53.2944 19.2557L51.4354 17.7911L49.2346 19.4607C49.178 19.5036 49.1105 19.5297 49.0397 19.5357C48.969 19.5417 48.898 19.5276 48.835 19.4949C48.772 19.4621 48.7195 19.4122 48.6838 19.3508C48.6481 19.2895 48.6305 19.2192 48.6331 19.1483L48.8811 13.4794L21.3569 15.1978C20.7018 15.2391 20.0888 15.5349 19.6488 16.022C19.2088 16.5091 18.9766 17.1488 19.0019 17.8048L20.5504 59.0726C20.5738 59.7033 20.8337 60.3021 21.2783 60.75C21.723 61.1979 22.3198 61.4621 22.9504 61.4901L56.5028 62.9976C56.8419 63.0124 57.1806 62.9584 57.4983 62.8389C57.816 62.7194 58.1063 62.5368 58.3517 62.3022C58.597 62.0676 58.7924 61.7858 58.926 61.4738C59.0597 61.1617 59.1288 60.8258 59.1293 60.4864V15.5142C59.1294 15.1709 59.0592 14.8312 58.923 14.5161C58.7868 14.201 58.5875 13.9171 58.3374 13.682C58.0873 13.4469 57.7916 13.2655 57.4687 13.1491C57.1458 13.0326 56.8024 12.9835 56.4598 13.0049ZM39.8223 21.5072C46.364 21.5072 49.9395 25.0085 49.9395 31.6674C49.0549 32.3548 42.4683 32.8235 42.4683 31.8471C42.6049 28.1154 40.9353 27.9513 40.0078 27.9513C39.1251 27.9513 37.641 28.2169 37.641 30.2165C37.641 35.1473 50.3574 34.8817 50.3574 44.833C50.3574 50.4296 45.8075 53.5228 40.0078 53.5228C34.0206 53.5228 28.7891 51.1014 29.3789 42.7025C29.6132 41.7164 37.2231 41.9507 37.2231 42.7025C37.1294 46.1667 37.9183 47.1861 39.914 47.1861C41.445 47.1861 42.1421 46.3425 42.1421 44.9209C42.1421 39.8554 29.6112 39.6796 29.6112 30.3923C29.6112 25.0612 33.2785 21.5072 39.8223 21.5072Z" fill="#FF4785"/>
<defs>
<filter id="filter0_d_114_7" x="0" y="0" width="290" height="80" filterUnits="userSpaceOnUse" color-interpolation-filters="sRGB">
<feFlood flood-opacity="0" result="BackgroundImageFix"/>
<feColorMatrix in="SourceAlpha" type="matrix" values="0 0 0 0 0 0 0 0 0 0 0 0 0 0 0 0 0 0 127 0" result="hardAlpha"/>
<feMorphology radius="1" operator="dilate" in="SourceAlpha" result="effect1_dropShadow_114_7"/>
<feOffset dx="2" dy="2"/>
<feGaussianBlur stdDeviation="2"/>
<feComposite in2="hardAlpha" operator="out"/>
<feColorMatrix type="matrix" values="0 0 0 0 0 0 0 0 0 0 0 0 0 0 0 0 0 0 0.25 0"/>
<feBlend mode="normal" in2="BackgroundImageFix" result="effect1_dropShadow_114_7"/>
<feBlend mode="normal" in="SourceGraphic" in2="effect1_dropShadow_114_7" result="shape"/>
</filter>
</defs>
</svg>
